<svg width="110" height="110" viewBox="0 0 110 110" fill="none" xmlns="http://www.w3.org/2000/svg">
<path d="M37.1523 83.6321C24.2823 73.7138 9.1665 62.0675 9.1665 41.8779C9.1665 20.7946 31.7303 5.50918 51.6265 22.0642L44.9623 37.6017C44.653 38.3223 44.5993 39.127 44.8102 39.8823C45.0211 40.6376 45.484 41.2981 46.1219 41.7542L59.1065 51.0308L47.804 64.2217C47.2409 64.879 46.9465 65.7247 46.9796 66.5896C47.0128 67.4545 47.371 68.2752 47.9828 68.8875L55.7744 76.6792L51.6036 93.3625C48.1386 92.2029 44.6553 89.4988 41.0711 86.6708C39.7969 85.6747 38.4891 84.6618 37.1478 83.6321" fill="#201E1E"/>
<path d="M58.7215 93.2479C62.0765 92.0334 65.4544 89.4117 68.924 86.6754C70.1981 85.6732 71.5059 84.6588 72.8473 83.6321C85.7173 73.7138 100.833 62.0675 100.833 41.8779C100.833 21.1842 79.1035 6.0821 59.4914 21.1704L52.3735 37.7713L66.1648 47.6209C66.5525 47.8983 66.8782 48.2533 67.1213 48.6634C67.3644 49.0735 67.5196 49.5297 67.5769 50.003C67.6342 50.4762 67.5925 50.9563 67.4543 51.4126C67.3162 51.8688 67.0846 52.2914 66.7744 52.6534L55.096 66.2796L62.0169 73.1959C62.4362 73.6156 62.7398 74.1368 62.898 74.7086C63.0562 75.2805 63.0637 75.8836 62.9198 76.4592L58.7215 93.2479Z" fill="#201E1E"/>
</svg>
