<svg width="84" height="83" viewBox="0 0 84 83" fill="none" xmlns="http://www.w3.org/2000/svg">
<g filter="url(#filter0_d_14_51)">
<path fill-rule="evenodd" clip-rule="evenodd" d="M46.6132 8.47333C46.9032 9.03667 46.9765 9.76 47.1198 11.2067C47.3932 13.94 47.5298 15.3067 48.1032 16.06C48.4604 16.5277 48.9351 16.8926 49.479 17.1174C50.0229 17.3422 50.6166 17.419 51.1998 17.34C52.1332 17.2167 53.1998 16.3467 55.3265 14.6067C56.4498 13.6833 57.0132 13.2233 57.6165 13.03C58.3849 12.7845 59.2163 12.8259 59.9565 13.1467C60.5398 13.4 61.0565 13.9133 62.0798 14.94L65.0598 17.92C66.0865 18.9467 66.5998 19.46 66.8532 20.0433C67.1739 20.7835 67.2154 21.6149 66.9698 22.3833C66.7765 22.9867 66.3165 23.55 65.3965 24.6733C63.6532 26.8033 62.7832 27.8667 62.6565 28.8033C62.5785 29.3863 62.6561 29.9796 62.8815 30.5229C63.1069 31.0662 63.472 31.5401 63.9398 31.8967C64.6898 32.47 66.0598 32.6067 68.7965 32.88C70.2398 33.0233 70.9632 33.0967 71.5298 33.3867C72.2447 33.7573 72.8012 34.3742 73.0965 35.1233C73.3332 35.7133 73.3332 36.44 73.3332 37.8933V42.1067C73.3332 43.56 73.3332 44.2867 73.0998 44.8733C72.8035 45.6248 72.2445 46.2431 71.5265 46.6133C70.9632 46.9033 70.2398 46.9767 68.7932 47.12C66.0598 47.3933 64.6932 47.53 63.9398 48.1033C63.4721 48.4605 63.1073 48.9352 62.8825 49.4791C62.6576 50.023 62.5808 50.6168 62.6598 51.2C62.7865 52.1333 63.6565 53.2 65.3965 55.3267C66.3165 56.45 66.7765 57.01 66.9698 57.6167C67.2154 58.3851 67.1739 59.2165 66.8532 59.9567C66.5998 60.54 66.0865 61.0533 65.0598 62.08L62.0798 65.0567C61.0532 66.0867 60.5398 66.6 59.9565 66.85C59.2163 67.1708 58.3849 67.2122 57.6165 66.9667C57.0132 66.7733 56.4498 66.3133 55.3265 65.3933C53.1965 63.6533 52.1332 62.7833 51.1998 62.66C50.6166 62.581 50.0229 62.6578 49.479 62.8826C48.9351 63.1074 48.4604 63.4723 48.1032 63.94C47.5298 64.69 47.3932 66.0567 47.1198 68.7933C46.9765 70.24 46.9032 70.9633 46.6132 71.5267C46.2438 72.244 45.6267 72.803 44.8765 73.1C44.2865 73.3333 43.5598 73.3333 42.1065 73.3333H37.8932C36.4398 73.3333 35.7132 73.3333 35.1265 73.1C34.375 72.8037 33.7567 72.2446 33.3865 71.5267C33.0965 70.9633 33.0232 70.24 32.8798 68.7933C32.6065 66.06 32.4698 64.6933 31.8965 63.94C31.5396 63.4728 31.0654 63.1083 30.5222 62.8835C29.9789 62.6587 29.3859 62.5816 28.8032 62.66C27.8665 62.7833 26.8032 63.6533 24.6732 65.3933C23.5498 66.3167 22.9865 66.7767 22.3832 66.97C21.6148 67.2155 20.7834 67.1741 20.0432 66.8533C19.4598 66.6 18.9432 66.0867 17.9198 65.06L14.9398 62.08C13.9132 61.0533 13.3998 60.54 13.1465 59.9567C12.8257 59.2165 12.7843 58.3851 13.0298 57.6167C13.2232 57.0133 13.6832 56.45 14.6032 55.3267C16.3465 53.1967 17.2165 52.1333 17.3398 51.1967C17.4182 50.614 17.3411 50.0209 17.1163 49.4777C16.8915 48.9344 16.527 48.4602 16.0598 48.1033C15.3098 47.53 13.9398 47.3933 11.2032 47.12C9.75984 46.9767 9.0365 46.9033 8.46984 46.6133C7.755 46.2427 7.19849 45.6258 6.90317 44.8767C6.6665 44.2867 6.6665 43.56 6.6665 42.1067V37.8933C6.6665 36.44 6.6665 35.7133 6.89984 35.1267C7.19613 34.3752 7.75522 33.7569 8.47317 33.3867C9.0365 33.0967 9.75984 33.0233 11.2065 32.88C13.9398 32.6067 15.3098 32.47 16.0598 31.8967C16.5276 31.5401 16.8928 31.0662 17.1182 30.5229C17.3436 29.9796 17.4212 29.3863 17.3432 28.8033C17.2165 27.8667 16.3432 26.8033 14.6032 24.67C13.6832 23.5467 13.2232 22.9867 13.0298 22.38C12.7843 21.6116 12.8257 20.7802 13.1465 20.04C13.3998 19.46 13.9132 18.9433 14.9398 17.9167L17.9198 14.94C18.9465 13.9133 19.4598 13.3967 20.0432 13.1467C20.7834 12.8259 21.6148 12.7845 22.3832 13.03C22.9865 13.2233 23.5498 13.6833 24.6732 14.6033C26.8032 16.3433 27.8665 17.2133 28.7998 17.34C29.3839 17.4193 29.9785 17.3422 30.5231 17.1168C31.0676 16.8914 31.5427 16.5255 31.8998 16.0567C32.4665 15.3067 32.6065 13.94 32.8798 11.2033C33.0232 9.76 33.0965 9.03667 33.3865 8.47C33.7565 7.7539 34.3735 7.19614 35.1232 6.9C35.7132 6.66667 36.4398 6.66667 37.8932 6.66667H42.1065C43.5598 6.66667 44.2865 6.66667 44.8732 6.9C45.6246 7.19629 46.243 7.75538 46.6132 8.47333ZM39.9998 53.3333C43.5361 53.3333 46.9274 51.9286 49.4279 49.4281C51.9284 46.9276 53.3332 43.5362 53.3332 40C53.3332 36.4638 51.9284 33.0724 49.4279 30.5719C46.9274 28.0714 43.5361 26.6667 39.9998 26.6667C36.4636 26.6667 33.0722 28.0714 30.5717 30.5719C28.0713 33.0724 26.6665 36.4638 26.6665 40C26.6665 43.5362 28.0713 46.9276 30.5717 49.4281C33.0722 51.9286 36.4636 53.3333 39.9998 53.3333Z" fill="#958585"/>
</g>
<defs>
<filter id="filter0_d_14_51" x="0" y="0" width="90" height="89" filterUnits="userSpaceOnUse" color-interpolation-filters="sRGB">
<feFlood flood-opacity="0" result="BackgroundImageFix"/>
<feColorMatrix in="SourceAlpha" type="matrix" values="0 0 0 0 0 0 0 0 0 0 0 0 0 0 0 0 0 0 127 0" result="hardAlpha"/>
<feOffset dx="6" dy="5"/>
<feGaussianBlur stdDeviation="2"/>
<feComposite in2="hardAlpha" operator="out"/>
<feColorMatrix type="matrix" values="0 0 0 0 0.962139 0 0 0 0 0.637367 0 0 0 0 0.637367 0 0 0 0.25 0"/>
<feBlend mode="normal" in2="BackgroundImageFix" result="effect1_dropShadow_14_51"/>
<feBlend mode="normal" in="SourceGraphic" in2="effect1_dropShadow_14_51" result="shape"/>
</filter>
</defs>
</svg>
