<svg width="590" height="223" viewBox="0 0 590 223" fill="none" xmlns="http://www.w3.org/2000/svg">
<mask id="path-1-inside-1_20_1237" fill="white">
<path d="M590 215C590 219.418 586.418 223 582 223H8.00001C3.58173 223 0 219.418 0 215V117.435C0 113.016 3.58172 109.435 8 109.435H188.667C193.085 109.435 196.667 105.853 196.667 101.435V8.57129C196.667 4.15301 200.249 0.571289 204.667 0.571289H385.333C389.751 0.571289 393.333 4.15301 393.333 8.57129V101.435C393.333 105.853 396.915 109.435 401.333 109.435H582C586.418 109.435 590 113.016 590 117.435V215Z"/>
</mask>
<path d="M590 215C590 219.418 586.418 223 582 223H8.00001C3.58173 223 0 219.418 0 215V117.435C0 113.016 3.58172 109.435 8 109.435H188.667C193.085 109.435 196.667 105.853 196.667 101.435V8.57129C196.667 4.15301 200.249 0.571289 204.667 0.571289H385.333C389.751 0.571289 393.333 4.15301 393.333 8.57129V101.435C393.333 105.853 396.915 109.435 401.333 109.435H582C586.418 109.435 590 113.016 590 117.435V215Z" fill="#FFEFB8"/>
<path d="M582 223V220H8.00001V223V226H582V223ZM0 215H3V117.435H0H-3V215H0ZM8 109.435V112.435H188.667V109.435V106.435H8V109.435ZM196.667 101.435H199.667V8.57129H196.667H193.667V101.435H196.667ZM204.667 0.571289V3.57129H385.333V0.571289V-2.42871H204.667V0.571289ZM393.333 8.57129H390.333V101.435H393.333H396.333V8.57129H393.333ZM401.333 109.435V112.435H582V109.435V106.435H401.333V109.435ZM590 117.435H587V215H590H593V117.435H590ZM582 109.435V112.435C584.761 112.435 587 114.673 587 117.435H590H593C593 111.359 588.075 106.435 582 106.435V109.435ZM393.333 101.435H390.333C390.333 107.51 395.258 112.435 401.333 112.435V109.435V106.435C398.572 106.435 396.333 104.196 396.333 101.435H393.333ZM385.333 0.571289V3.57129C388.094 3.57129 390.333 5.80986 390.333 8.57129H393.333H396.333C396.333 2.49616 391.408 -2.42871 385.333 -2.42871V0.571289ZM196.667 8.57129H199.667C199.667 5.80987 201.906 3.57129 204.667 3.57129V0.571289V-2.42871C198.592 -2.42871 193.667 2.49616 193.667 8.57129H196.667ZM188.667 109.435V112.435C194.742 112.435 199.667 107.51 199.667 101.435H196.667H193.667C193.667 104.196 191.428 106.435 188.667 106.435V109.435ZM0 117.435H3C3 114.673 5.23858 112.435 8 112.435V109.435V106.435C1.92487 106.435 -3 111.359 -3 117.435H0ZM8.00001 223V220C5.23858 220 3 217.761 3 215H0H-3C-3 221.075 1.92488 226 8.00001 226V223ZM582 223V226C588.075 226 593 221.075 593 215H590H587C587 217.761 584.761 220 582 220V223Z" fill="black" mask="url(#path-1-inside-1_20_1237)"/>
</svg>
