<svg width="60" height="60" viewBox="0 0 60 60" fill="none" xmlns="http://www.w3.org/2000/svg">
<path d="M7.5 52.5C6.79167 52.5 6.19833 52.26 5.72 51.78C5.24167 51.3 5.00167 50.7067 5 50V25C5 24.2917 5.24 23.6983 5.72 23.22C6.2 22.7417 6.79333 22.5017 7.5 22.5H16.25C16.9583 22.5 17.5525 22.74 18.0325 23.22C18.5125 23.7 18.7517 24.2933 18.75 25V50C18.75 50.7083 18.51 51.3025 18.03 51.7825C17.55 52.2625 16.9567 52.5017 16.25 52.5H7.5ZM25.625 52.5C24.9167 52.5 24.3233 52.26 23.845 51.78C23.3667 51.3 23.1267 50.7067 23.125 50V10C23.125 9.29167 23.365 8.69833 23.845 8.22C24.325 7.74167 24.9183 7.50167 25.625 7.5H34.375C35.0833 7.5 35.6775 7.74 36.1575 8.22C36.6375 8.7 36.8767 9.29333 36.875 10V50C36.875 50.7083 36.635 51.3025 36.155 51.7825C35.675 52.2625 35.0817 52.5017 34.375 52.5H25.625ZM43.75 52.5C43.0417 52.5 42.4483 52.26 41.97 51.78C41.4917 51.3 41.2517 50.7067 41.25 50V30C41.25 29.2917 41.49 28.6983 41.97 28.22C42.45 27.7417 43.0433 27.5017 43.75 27.5H52.5C53.2083 27.5 53.8025 27.74 54.2825 28.22C54.7625 28.7 55.0017 29.2933 55 30V50C55 50.7083 54.76 51.3025 54.28 51.7825C53.8 52.2625 53.2067 52.5017 52.5 52.5H43.75Z" fill="black"/>
</svg>
