<svg width="108" height="107" viewBox="0 0 108 107" fill="none" xmlns="http://www.w3.org/2000/svg">
<path d="M82.8187 74.5223C76.7437 75.9811 70.4018 75.9104 64.3608 74.3166C58.3198 72.7229 52.7684 69.6558 48.2036 65.3901C43.6389 61.1244 40.2033 55.7932 38.2045 49.8738C36.2057 43.9545 35.7062 37.6319 36.7506 31.4721C36.5942 31.6281 36.4263 31.7722 36.2484 31.9032C35.0039 32.8499 33.4483 33.201 30.3371 33.9033L27.5148 34.5433C16.5811 37.0189 11.1143 38.2545 9.812 42.4369C8.51418 46.6148 12.2387 50.9749 19.6923 59.6908L21.6213 61.9442C23.7369 64.4198 24.7991 65.6598 25.2747 67.1888C25.7503 68.7221 25.5903 70.3755 25.2703 73.6779L24.9769 76.6868C23.8524 88.3183 23.288 94.1318 26.6925 96.7141C30.0971 99.2964 35.2172 96.9452 45.4487 92.2295L48.1021 91.0117C51.0088 89.6695 52.4622 89.0028 54.0045 89.0028C55.5468 89.0028 57.0001 89.6695 59.9113 91.0117L62.5559 92.2295C72.7917 96.9408 77.9119 99.2964 81.312 96.7186C84.721 94.1318 84.1565 88.3183 83.0321 76.6868L82.8187 74.5223Z" fill="#FEC500"/>
<path opacity="0.5" d="M41.3507 24.0363L39.8929 26.6497C38.2928 29.5209 37.4928 30.9565 36.2483 31.9032C36.4261 31.7699 36.5935 31.6262 36.7506 31.4721C35.7059 37.6323 36.2054 43.9555 38.2044 49.8753C40.2033 55.795 43.6394 61.1266 48.2047 65.3925C52.77 69.6583 58.3221 72.7253 64.3637 74.3186C70.4053 75.9119 76.7478 75.9819 82.8231 74.5223L82.7342 73.6779C82.4187 70.3755 82.2586 68.7221 82.7342 67.1888C83.2098 65.6598 84.2676 64.4198 86.3877 61.9442L88.3166 59.6908C95.7702 50.9794 99.4947 46.6192 98.1925 42.4369C96.8947 38.2545 91.4278 37.0145 80.4941 34.5433L77.6674 33.9033C74.5606 33.201 73.005 32.8499 71.7561 31.9032C70.5116 30.9565 69.7116 29.5209 68.1115 26.6497L66.6582 24.0363C61.0269 13.9382 58.2135 8.88917 54.0044 8.88917C49.7954 8.88917 46.982 13.9382 41.3507 24.0363Z" fill="#FEC500"/>
</svg>
