<svg width="48" height="48" viewBox="0 0 48 48" fill="none" xmlns="http://www.w3.org/2000/svg">
<path d="M45 24C45 19.8466 43.7684 15.7865 41.4609 12.333C39.1533 8.87959 35.8736 6.18797 32.0363 4.59853C28.1991 3.00909 23.9767 2.59322 19.9031 3.40351C15.8295 4.2138 12.0877 6.21386 9.15075 9.15076C6.21385 12.0877 4.2138 15.8295 3.40351 19.9031C2.59322 23.9767 3.00909 28.1991 4.59853 32.0364C6.18797 35.8736 8.87959 39.1534 12.333 41.4609C15.7865 43.7684 19.8466 45 24 45C29.5695 45 34.911 42.7875 38.8492 38.8492C42.7875 34.911 45 29.5695 45 24ZM36 25.5L17.775 25.5L26.145 33.9105L24 36L12 24L24 12L26.145 14.1405L17.775 22.5L36 22.5L36 25.5Z" fill="black"/>
</svg>
