<svg width="65" height="65" viewBox="0 0 65 65" fill="none" xmlns="http://www.w3.org/2000/svg">
<path d="M32.5 39.6094C38.4604 39.6094 43.291 34.8359 43.291 28.9453V14.7266C43.291 8.83594 38.4604 4.0625 32.5 4.0625C26.5396 4.0625 21.709 8.83594 21.709 14.7266V28.9453C21.709 34.8359 26.5396 39.6094 32.5 39.6094ZM53.4473 28.8184C53.4473 28.5391 53.2188 28.3105 52.9395 28.3105H49.1309C48.8516 28.3105 48.623 28.5391 48.623 28.8184C48.623 37.7241 41.4058 44.9414 32.5 44.9414C23.5942 44.9414 16.377 37.7241 16.377 28.8184C16.377 28.5391 16.1484 28.3105 15.8691 28.3105H12.0605C11.7812 28.3105 11.5527 28.5391 11.5527 28.8184C11.5527 39.5269 19.5889 48.3628 29.9609 49.6133V56.1133H20.7378C19.8682 56.1133 19.1699 57.021 19.1699 58.1445V60.4297C19.1699 60.709 19.3477 60.9375 19.5635 60.9375H45.4365C45.6523 60.9375 45.8301 60.709 45.8301 60.4297V58.1445C45.8301 57.021 45.1318 56.1133 44.2622 56.1133H34.7852V49.645C45.2778 48.5024 53.4473 39.6157 53.4473 28.8184Z" fill="black"/>
</svg>
