<svg width="48" height="48" viewBox="0 0 48 48" fill="none" xmlns="http://www.w3.org/2000/svg">
<path fill-rule="evenodd" clip-rule="evenodd" d="M20.0004 4.00002C20.0008 3.58292 19.8707 3.17613 19.6285 2.8366C19.3862 2.49706 19.0439 2.24176 18.6493 2.10643C18.2548 1.9711 17.8278 1.9625 17.4282 2.08185C17.0285 2.20119 16.6761 2.44251 16.4204 2.77202L2.42041 20.772C2.1473 21.1231 1.99902 21.5552 1.99902 22C1.99902 22.4448 2.1473 22.8769 2.42041 23.228L16.4204 41.228C16.6761 41.5575 17.0285 41.7988 17.4282 41.9182C17.8278 42.0375 18.2548 42.0289 18.6493 41.8936C19.0439 41.7583 19.3862 41.503 19.6285 41.1634C19.8707 40.8239 20.0008 40.4171 20.0004 40V32.02C30.7584 32.244 35.9264 34.286 38.5224 36.506C40.9904 38.616 41.4424 41.098 41.9124 43.698L42.0344 44.368C42.1242 44.8474 42.386 45.2775 42.7707 45.5774C43.1554 45.8772 43.6364 46.0262 44.1232 45.9962C44.61 45.9662 45.0691 45.7594 45.4141 45.4146C45.7591 45.0698 45.9662 44.6108 45.9964 44.124C46.3384 38.628 45.8244 30.664 41.9424 24.002C38.1744 17.536 31.3904 12.564 20.0004 12.044V4.00002Z" fill="black"/>
</svg>
