<svg width="75" height="74" viewBox="0 0 75 74" fill="none" xmlns="http://www.w3.org/2000/svg">
<g filter="url(#filter0_d_19_117)">
<path fill-rule="evenodd" clip-rule="evenodd" d="M40.7868 7.41417C41.0406 7.90708 41.1047 8.54 41.2302 9.80583C41.4693 12.1975 41.5889 13.3933 42.0906 14.0525C42.4031 14.4618 42.8185 14.781 43.2944 14.9777C43.7703 15.1744 44.2898 15.2416 44.8002 15.1725C45.6168 15.0646 46.5502 14.3033 48.411 12.7808C49.3939 11.9729 49.8868 11.5704 50.4147 11.4012C51.0871 11.1864 51.8146 11.2227 52.4622 11.5033C52.9727 11.725 53.4247 12.1742 54.3202 13.0725L56.9277 15.68C57.826 16.5783 58.2752 17.0275 58.4968 17.5379C58.7775 18.1856 58.8138 18.913 58.5989 19.5854C58.4297 20.1133 58.0272 20.6062 57.2222 21.5892C55.6968 23.4529 54.9356 24.3833 54.8247 25.2029C54.7565 25.713 54.8244 26.2321 55.0216 26.7075C55.2188 27.1829 55.5383 27.5976 55.9477 27.9096C56.6039 28.4112 57.8027 28.5308 60.1972 28.77C61.4602 28.8954 62.0931 28.9596 62.5889 29.2133C63.2144 29.5377 63.7013 30.0774 63.9597 30.7329C64.1668 31.2492 64.1668 31.885 64.1668 33.1567V36.8433C64.1668 38.115 64.1668 38.7508 63.9627 39.2642C63.7034 39.9217 63.2142 40.4627 62.586 40.7867C62.0931 41.0404 61.4602 41.1046 60.1943 41.23C57.8027 41.4692 56.6068 41.5887 55.9477 42.0904C55.5384 42.403 55.2192 42.8183 55.0224 43.2942C54.8257 43.7702 54.7585 44.2897 54.8277 44.8C54.9385 45.6167 55.6997 46.55 57.2222 48.4108C58.0272 49.3937 58.4297 49.8837 58.5989 50.4146C58.8138 51.0869 58.7775 51.8144 58.4968 52.4621C58.2752 52.9725 57.826 53.4217 56.9277 54.32L54.3202 56.9246C53.4218 57.8258 52.9727 58.275 52.4622 58.4937C51.8146 58.7744 51.0871 58.8107 50.4147 58.5958C49.8868 58.4267 49.3939 58.0242 48.411 57.2192C46.5472 55.6967 45.6168 54.9354 44.8002 54.8275C44.2898 54.7584 43.7703 54.8256 43.2944 55.0223C42.8185 55.219 42.4031 55.5382 42.0906 55.9475C41.5889 56.6037 41.4693 57.7996 41.2302 60.1942C41.1047 61.46 41.0406 62.0929 40.7868 62.5858C40.4636 63.2135 39.9237 63.7026 39.2672 63.9625C38.751 64.1667 38.1152 64.1667 36.8435 64.1667H33.1568C31.8852 64.1667 31.2493 64.1667 30.736 63.9625C30.0785 63.7032 29.5374 63.214 29.2135 62.5858C28.9597 62.0929 28.8956 61.46 28.7702 60.1942C28.531 57.8025 28.4114 56.6067 27.9097 55.9475C27.5974 55.5387 27.1826 55.2198 26.7072 55.0231C26.2319 54.8264 25.7129 54.7589 25.2031 54.8275C24.3835 54.9354 23.4531 55.6967 21.5893 57.2192C20.6064 58.0271 20.1135 58.4296 19.5856 58.5987C18.9132 58.8136 18.1857 58.7773 17.5381 58.4967C17.0277 58.275 16.5756 57.8258 15.6802 56.9275L13.0727 54.32C12.1743 53.4217 11.7252 52.9725 11.5035 52.4621C11.2228 51.8144 11.1866 51.0869 11.4014 50.4146C11.5706 49.8867 11.9731 49.3937 12.7781 48.4108C14.3035 46.5471 15.0647 45.6167 15.1727 44.7971C15.2413 44.2872 15.1738 43.7683 14.9771 43.2929C14.7804 42.8176 14.4615 42.4027 14.0527 42.0904C13.3964 41.5887 12.1977 41.4692 9.80308 41.23C8.54016 41.1046 7.90725 41.0404 7.41141 40.7867C6.78593 40.4623 6.29898 39.9226 6.04058 39.2671C5.8335 38.7508 5.8335 38.115 5.8335 36.8433V33.1567C5.8335 31.885 5.8335 31.2492 6.03766 30.7358C6.29692 30.0783 6.78612 29.5373 7.41433 29.2133C7.90725 28.9596 8.54016 28.8954 9.806 28.77C12.1977 28.5308 13.3964 28.4112 14.0527 27.9096C14.462 27.5976 14.7815 27.1829 14.9787 26.7075C15.1759 26.2321 15.2439 25.713 15.1756 25.2029C15.0647 24.3833 14.3006 23.4529 12.7781 21.5862C11.9731 20.6033 11.5706 20.1133 11.4014 19.5825C11.1866 18.9101 11.2228 18.1827 11.5035 17.535C11.7252 17.0275 12.1743 16.5754 13.0727 15.6771L15.6802 13.0725C16.5785 12.1742 17.0277 11.7221 17.5381 11.5033C18.1857 11.2227 18.9132 11.1864 19.5856 11.4012C20.1135 11.5704 20.6064 11.9729 21.5893 12.7779C23.4531 14.3004 24.3835 15.0617 25.2002 15.1725C25.7112 15.2418 26.2315 15.1745 26.708 14.9772C27.1845 14.7799 27.6002 14.4599 27.9127 14.0496C28.4085 13.3933 28.531 12.1975 28.7702 9.80292C28.8956 8.54 28.9597 7.90708 29.2135 7.41125C29.5373 6.78467 30.0771 6.29663 30.7331 6.0375C31.2493 5.83333 31.8852 5.83333 33.1568 5.83333H36.8435C38.1152 5.83333 38.751 5.83333 39.2643 6.0375C39.9219 6.29675 40.4629 6.78596 40.7868 7.41417ZM35.0002 46.6667C38.0944 46.6667 41.0618 45.4375 43.2497 43.2496C45.4377 41.0617 46.6668 38.0942 46.6668 35C46.6668 31.9058 45.4377 28.9383 43.2497 26.7504C41.0618 24.5625 38.0944 23.3333 35.0002 23.3333C31.906 23.3333 28.9385 24.5625 26.7506 26.7504C24.5627 28.9383 23.3335 31.9058 23.3335 35C23.3335 38.0942 24.5627 41.0617 26.7506 43.2496C28.9385 45.4375 31.906 46.6667 35.0002 46.6667Z" fill="black"/>
</g>
<defs>
<filter id="filter0_d_19_117" x="0" y="0" width="80" height="79" filterUnits="userSpaceOnUse" color-interpolation-filters="sRGB">
<feFlood flood-opacity="0" result="BackgroundImageFix"/>
<feColorMatrix in="SourceAlpha" type="matrix" values="0 0 0 0 0 0 0 0 0 0 0 0 0 0 0 0 0 0 127 0" result="hardAlpha"/>
<feOffset dx="6" dy="5"/>
<feGaussianBlur stdDeviation="2"/>
<feComposite in2="hardAlpha" operator="out"/>
<feColorMatrix type="matrix" values="0 0 0 0 0.962139 0 0 0 0 0.637367 0 0 0 0 0.637367 0 0 0 0.25 0"/>
<feBlend mode="normal" in2="BackgroundImageFix" result="effect1_dropShadow_19_117"/>
<feBlend mode="normal" in="SourceGraphic" in2="effect1_dropShadow_19_117" result="shape"/>
</filter>
</defs>
</svg>
